<svg id="Livello_1" data-name="Livello 1" xmlns="http://www.w3.org/2000/svg" viewBox="0 0 178.03 178.03"><defs><style>.cls-1{fill:#ee7f1f;}.cls-2{fill:#fff;}</style></defs><circle class="cls-1" cx="89.02" cy="89.02" r="89.02"/><path class="cls-2" d="M157.11,59.87c-5.46-12.69-20.44-9.43-23.64-8.57L133.26,48l1.2-.71s0-1.37-.1-2.61a9.74,9.74,0,0,1,.6-3.11c.1-.49-.3-1,2.7-4s2.81-6.46,1.6-10.18-3.7-3.73-4.6-3.73a7.32,7.32,0,0,1-2.81-.62c-.3-.25-.8-1.36-1.5-1.83s-3.1-.4-4.61,0a8.16,8.16,0,0,0-3.6,2.33,21.6,21.6,0,0,0-.9,2.86l-.9.86A6.2,6.2,0,0,0,117,30c-1.4,2.23-1,6.83-.7,7.82a16.24,16.24,0,0,0,3.31,4.35,18.6,18.6,0,0,0,3.2,1.24,7.15,7.15,0,0,1,1.9.74c1.4.13,4,5.47,4,5.47H130l.37,2.71-24.91,8.34-.2-3,1.2-.71s0-1.37-.1-2.61a9.56,9.56,0,0,1,.61-3.1c.1-.5-.3-1,2.7-4s2.8-6.45,1.6-10.18-3.7-3.72-4.6-3.72a7.25,7.25,0,0,1-2.81-.63c-.3-.24-.8-1.36-1.5-1.83s-3.11-.4-4.61,0a8.16,8.16,0,0,0-3.6,2.33,21.6,21.6,0,0,0-.9,2.86l-.91.87A6.15,6.15,0,0,0,89,39.71c-1.4,2.23-1,6.83-.7,7.82a16.43,16.43,0,0,0,3.3,4.35,17.93,17.93,0,0,0,3.21,1.24,7.15,7.15,0,0,1,1.9.74c1.4.13,4,5.47,4,5.47h1.2l.32,2.4L77.8,69.94l-.14-2.21,1.2-.72s0-1.36-.1-2.6a9.74,9.74,0,0,1,.6-3.11c.1-.49-.3-1,2.7-4s2.81-6.46,1.61-10.18S80,43.42,79.06,43.42a7.32,7.32,0,0,1-2.81-.62c-.3-.25-.8-1.36-1.5-1.84s-3.1-.39-4.6,0a8.23,8.23,0,0,0-3.61,2.34,21.55,21.55,0,0,0-.9,2.85l-.9.87a6.2,6.2,0,0,0-3.31,2.74c-1.4,2.23-1,6.82-.7,7.82A16.22,16.22,0,0,0,64,61.92a17.8,17.8,0,0,0,3.2,1.25,7.15,7.15,0,0,1,1.9.74c1.41.12,4,5.46,4,5.46h1.2L74.57,71c-9.09,3.07-17.66,6-24.3,8.22l-.14-2.19,1.2-.71s0-1.37-.1-2.61a9.74,9.74,0,0,1,.6-3.11c.1-.49-.3-1,2.71-4s2.8-6.46,1.6-10.18-3.7-3.73-4.61-3.73a7.26,7.26,0,0,1-2.8-.62c-.3-.24-.8-1.36-1.5-1.83s-3.11-.4-4.61,0A8.16,8.16,0,0,0,39,52.62a20.48,20.48,0,0,0-.91,2.86l-.9.87a6.15,6.15,0,0,0-3.3,2.73c-1.4,2.23-1,6.83-.7,7.82a16.43,16.43,0,0,0,3.3,4.35,18.4,18.4,0,0,0,3.21,1.24,7.15,7.15,0,0,1,1.9.74c1.4.13,4,5.47,4,5.47h1.21l.22,1.64c-5.53,1.89-9.18,3.17-9.82,3.45-3.49,1.53-5.13,4.83-5.85,5.85a8.57,8.57,0,0,0-.92,4.58,77.68,77.68,0,0,1,.82,14.5c-.41,5.09-3.08,6.11-3.08,6.11L8.37,127a89.23,89.23,0,0,0,17.3,24.68c7.2-4.75,12.38-8.19,12.79-8.55,1.44-1.25,7.7-7.41,16-7.93,12.93-.81,13.88,11.13,18,9.35s27.85-21,33.93-32C114,98.8,124.06,96.7,126.71,96.26c5.38-.9,5.9,5.41,12.58,4.4,3.52-.53,10-3.64,10-3.64C165.08,84.81,163.24,74.12,157.11,59.87Z"/><ellipse class="cls-1" cx="46.77" cy="101.67" rx="6.46" ry="8.01"/><ellipse class="cls-1" cx="74.73" cy="91.95" rx="6.46" ry="8.01"/><ellipse class="cls-1" cx="102.84" cy="82.44" rx="6.46" ry="8.01"/><ellipse class="cls-1" cx="131.2" cy="72.66" rx="6.46" ry="8.01"/></svg>