<svg id="Livello_1" data-name="Livello 1" xmlns="http://www.w3.org/2000/svg" viewBox="0 0 178.03 178.03"><defs><style>.cls-1{fill:#ee7f1f;}.cls-2{fill:#fff;}</style></defs><circle class="cls-1" cx="89.02" cy="89.02" r="89.02"/><path class="cls-2" d="M149.19,121.6a8.08,8.08,0,0,1-1.72.14c-1.41,0-.28-.08,1.72-.14a23.86,23.86,0,0,0,4.78-1.45v-.53s2.58-2.73,2.73-5.58c.27-5.34-2.8-6.48-2.8-6.48L154,76.19l.74-3.3V68.43c-2-.24-4.07-.56-5.6-.79a6.27,6.27,0,0,1-1.88-.13c-.86-.26.14-.13,1.88.13a44.58,44.58,0,0,0,5.6-.76v-.13l1.88-.47,1.82-1.76s3.32-8.37,0-14.43C153.3,40.65,99.87,40.24,89,40.25s-64.29.4-69.47,9.84c-3.32,6.06,0,14.43,0,14.43l1.83,1.76,1.87.47V67A115.16,115.16,0,0,0,40.41,71c-5.76-.62-12.11-1.28-17.17-1.76v3.61l.74,3.3.15,31.37s-3.08,1.14-2.81,6.48c.15,2.85,2.73,5.58,2.73,5.58v.31a32,32,0,0,0,6.07,2.35c1.48.21-2.31.35-6.07,0V128s10.74,15.65,65,14.81c54.21.84,65-14.81,65-14.81v-6.61C152.32,121.51,150.55,121.56,149.19,121.6ZM89,62.15c-7.92-.22-37.81-1.09-42-1.88-4.86-.91-17.1-2.73-20.94-4.43S23.15,53.3,24,50.72c2.41-7.44,47.22-8.84,65-9.2,18.31,0,62.61,1.76,65,9.2.84,2.58,1.77,3.41-2.06,5.12S135.9,59.36,131,60.27C126.82,61.06,96.93,61.93,89,62.15Z"/><path class="cls-1" d="M36.67,61.75v4.09l-2.21.46v1l2.21.57v8.86l-1.11.46V79.6l-2.28.68s-1.15,13.9,7.08,15.92c4.13,1,4,0,4,0l1-1,1.46-3.61V76.19H40V68.11l1.35-.79v-1L40,65.73v-4Z"/><path class="cls-1" d="M36.67,135.88v-4.09l-2.21-.46v-1l2.21-.57v-8.87l-1.11-.45V118l-2.28-.68s-1.15-13.91,7.08-15.92c4.13-1,4,0,4,0l1,1,1.46,3.61v15.38H40v8.07l1.35.8v1L40,131.9v4Z"/><path class="cls-1" d="M134.9,61.75v4.09l2.21.46v1l-2.21.57v8.86l1.1.46V79.6l2.29.68s1.14,13.9-7.08,15.92c-4.13,1-4,0-4,0l-1-1-1.46-3.61V76.19h6.8V68.11l-1.34-.79v-1l1.34-.57v-4Z"/><path class="cls-1" d="M134.9,135.88v-4.09l2.21-.46v-1l-2.21-.57v-8.87l1.1-.45V118l2.29-.68s1.14-13.91-7.08-15.92c-4.13-1-4,0-4,0l-1,1-1.46,3.61v15.38h6.8v8.07l-1.34.8v1l1.34.57v4Z"/><rect class="cls-1" x="67.68" y="91.26" width="41.87" height="17.38"/><path class="cls-1" d="M88.61,41.52c-17.8.36-62.61,1.76-65,9.2-.83,2.58-1.77,3.41,2.07,5.12s16.07,3.52,20.94,4.43c4.22.79,34.1,1.66,42,1.88,7.92-.22,37.81-1.09,42-1.88,4.87-.91,17.11-2.73,20.94-4.43s2.91-2.54,2.07-5.12C151.23,43.28,106.93,41.52,88.61,41.52Z"/><path class="cls-1" d="M57.07,71.48s62.26,1,62.87,0S59.31,71.88,57.07,71.48Z"/><path class="cls-1" d="M57.17,129.8s62.26,1,62.87,0S59.41,130.21,57.17,129.8Z"/></svg>