<svg id="Livello_1" data-name="Livello 1" xmlns="http://www.w3.org/2000/svg" viewBox="0 0 178.03 178.03"><defs><style>.cls-1{fill:#ee7f1f;}.cls-2{fill:#fff;}</style></defs><circle class="cls-1" cx="89.02" cy="89.02" r="89.02"/><path class="cls-2" d="M125.62,46.76A20.89,20.89,0,0,1,126,49a5.85,5.85,0,0,0,1.35,3c.85.85,3.05.51,5.93,0s4.57-3.89,4.57-3.89V43.89s-.34-3.56-5.59-5.25-6.77.51-6.6,1a10.76,10.76,0,0,1,0,2.37h-4.55c1.38-16.3,3-24.89,3-24.89-8,4.74-35,2.37-35,2.37l-.1,0-.11,0s-27,2.37-35-2.37c0,0,1.65,8.59,3,24.89H52.41a10.76,10.76,0,0,1,0-2.37c.17-.5-1.35-2.71-6.6-1s-5.59,5.25-5.59,5.25v4.23s1.69,3.39,4.57,3.89,5.08.85,5.93,0a5.85,5.85,0,0,0,1.35-3,20.89,20.89,0,0,1,.34-2.21l4.94.13c.5,6.76.94,14.64,1.2,23.58H53.6a10.76,10.76,0,0,1,0-2.37c.17-.51-1.36-2.71-6.61-1s-5.59,5.25-5.59,5.25v4.24S43.1,80,46,80.46s5.08.85,5.92,0a5.83,5.83,0,0,0,1.36-3,20.61,20.61,0,0,1,.34-2.2l5.08.12c.17,7.91.21,16.57,0,26H53.6a10.77,10.77,0,0,1,0-2.37c.17-.51-1.36-2.71-6.61-1s-5.59,5.25-5.59,5.25v4.23s1.7,3.39,4.58,3.9,5.08.84,5.92,0a5.83,5.83,0,0,0,1.36-3,20.61,20.61,0,0,1,.34-2.2l5,.12q-.27,11.38-1,24.09c-.23,4.06,11.17,7.28,12.19,35.22a62.18,62.18,0,0,1,0,8.13h38.33a62.18,62.18,0,0,1,0-8.13c1-27.94,12.42-31.16,12.19-35.22q-.7-12.71-1-24.09l5-.12a21.19,21.19,0,0,1,.33,2.2,5.83,5.83,0,0,0,1.36,3c.84.84,3.05.5,5.92,0s4.58-3.9,4.58-3.9v-4.23s-.34-3.56-5.59-5.25-6.77.51-6.6,1a11.44,11.44,0,0,1,0,2.37H119.3c-.16-9.39-.12-18.05,0-26l5.09-.12a21.19,21.19,0,0,1,.33,2.2,5.83,5.83,0,0,0,1.36,3c.84.85,3.05.51,5.92,0s4.58-3.89,4.58-3.89V72.33s-.34-3.55-5.59-5.25-6.77.51-6.6,1a11.43,11.43,0,0,1,0,2.37h-5c.26-8.94.7-16.82,1.2-23.58Z"/><circle class="cls-1" cx="109.21" cy="44.8" r="6.01"/><circle class="cls-1" cx="108.94" cy="74.96" r="6.01"/><circle class="cls-1" cx="108.94" cy="105.78" r="6.01"/><circle class="cls-1" cx="68.82" cy="44.8" r="6.01"/><circle class="cls-1" cx="69.09" cy="74.96" r="6.01"/><circle class="cls-1" cx="69.09" cy="105.78" r="6.01"/><path class="cls-2" d="M69.85,173.59l0,2.36A89.25,89.25,0,0,0,87.7,178c14.67,0,20.43-2.06,20.43-2.06l.05-2.38L89.84,171Z"/></svg>