<svg id="Livello_1" data-name="Livello 1" xmlns="http://www.w3.org/2000/svg" viewBox="0 0 178.03 178.03"><defs><style>.cls-1{fill:#ee7f1f;}.cls-2{fill:#fff;}</style></defs><circle class="cls-1" cx="89.02" cy="89.02" r="89.02"/><rect class="cls-2" x="55.31" y="20.95" width="31.81" height="136.14"/><rect class="cls-2" x="90.17" y="20.95" width="31.81" height="136.14"/><rect class="cls-1" x="81.13" y="20.6" width="16.64" height="105.85"/><path class="cls-2" d="M156.83,30.85a89.21,89.21,0,0,0-10-9.9H125V157.08h21.79a89.21,89.21,0,0,0,10-9.9Z"/><path class="cls-2" d="M20.51,32.32V145.71a89.68,89.68,0,0,0,11.27,11.37H52.32V21H31.78A89.68,89.68,0,0,0,20.51,32.32Z"/><rect class="cls-1" x="45.69" y="20.6" width="16.64" height="105.85"/><rect class="cls-1" x="115.18" y="20.6" width="16.64" height="105.85"/><path class="cls-2" d="M18.09,35.22a89,89,0,0,0,0,107.59Z"/><path class="cls-2" d="M159.94,35.22a89,89,0,0,1,0,107.59Z"/></svg>