<svg id="Livello_1" data-name="Livello 1" xmlns="http://www.w3.org/2000/svg" viewBox="0 0 178.03 178.24"><defs><style>.cls-1{fill:#ee7f1f;}.cls-2{fill:#fff;}</style></defs><circle class="cls-1" cx="89.02" cy="89.02" r="89.02"/><path class="cls-2" d="M64.78,127.46l7.09,3s-.38,10.72-1.2,11.47C68.19,144.18,68,149.8,68,149.8a12.68,12.68,0,0,0,1,4.51c1,2.11,1.42,2.32,2.85,3.07s3.25,1.69,3.25,1.69v4.32H70.31L70,176.26a87.12,87.12,0,0,0,32.55.84C100.74,166,97.58,161,98.43,160.75c4.7-1.58,4.33-11.54,4.33-11.54s6-17.27,6.73-17.54c11.67-4.6,13.46-14.18,13.46-14.18l0-.23c-2.9-1.75-7.14-4.32-7.3-4.47-.48-.41-1.42-2.76,0-4.05a2.11,2.11,0,0,1,2.55,0c1,.44,3.77,2,5.81,3.2.12-.63.26-1.3.4-2-2.9-1.75-7.25-4.38-7.41-4.52-.48-.42-1.42-2.77,0-4.06,1-.92,2.08-.19,2.55,0,1,.44,3.86,2.06,5.91,3.25.16-.85.33-1.72.51-2.62-2.9-1.75-7.36-4.45-7.53-4.6-.48-.41-1.42-2.76,0-4a2.1,2.1,0,0,1,2.55,0c1,.45,4,2.12,6,3.32q.2-1,.39-2c-2.9-1.75-7.44-4.49-7.61-4.64-.48-.42-1.42-2.77,0-4.06a2.09,2.09,0,0,1,2.55,0c1,.45,4,2.15,6.09,3.35.15-.81.31-1.63.46-2.44-2.9-1.75-7.27-4.4-7.43-4.55-.48-.41-1.42-2.77,0-4.06,1-.91,2.08-.19,2.55,0,1,.44,3.85,2.06,5.9,3.25.13-.68.25-1.35.38-2-2.9-1.75-7.32-4.43-7.49-4.58-.47-.41-1.41-2.76,0-4.05a2.1,2.1,0,0,1,2.55,0c1,.45,3.88,2.08,5.93,3.27.16-.86.32-1.7.46-2.52-2.89-1.75-7-4.24-7.16-4.38-.48-.42-1.41-2.77,0-4.06a2.1,2.1,0,0,1,2.55,0c1,.42,3.56,1.89,5.57,3,.12-.71.24-1.39.35-2-2.89-1.75-7-4.21-7.12-4.35-.48-.41-1.42-2.77,0-4.06a2.1,2.1,0,0,1,2.55,0c.93.41,3.41,1.81,5.4,3,0-.3.06-.56.08-.78.72-7.82-1-13.33-11.53-23.43a31.61,31.61,0,0,0-10.4-6.27S107,31.59,106.3,32s-5.18,4.71-5.48,6.29-4.8,1.51-5,1.29-2.55-1.3-2.18-2.37a17,17,0,0,1,2.25-5.28,23.81,23.81,0,0,1,3.68-4.5c.66-.59,1.3-1.33,2-1.95-1.26-.23-2.53-.42-3.8-.58l1.06,1.78s-4.2,1.85-5.25,4S91,36.06,90.61,36.59s-1.94,2.45-4.19,1.3c-1.43-.72.67-7.08,1.57-8.15a30.8,30.8,0,0,1,4-4.08c.4-.27,1.22-.73,2.06-1.18-1.64-.13-3.25-.21-4.81-.24l.32.93s-3.38,2.1-4.43,4.27-2.25,5.85-2.62,6.38a2.53,2.53,0,0,1-3.63.94c-.9-.45,1-6.37,2-7.44s2.58-3.49,3.6-4.18l1.34-.91c-1.14,0-2.23.07-3.27.13l.13.4s-3.37,2.1-4.42,4.28-2.25,5.85-2.63,6.37-.75,2-3.07,1c-.69-.29.9-5.91,1.8-7A28.85,28.85,0,0,1,78,25.36a7.92,7.92,0,0,0,.81-.66h-.11a20.75,20.75,0,0,0-2.76.54,15.84,15.84,0,0,0-3,3,46.86,46.86,0,0,0-2.1,5.17c-.15.38-1.27,2.63-1.87,2.93a6.11,6.11,0,0,1-2,.37c-.22,0-1-.75-.37-2.47S69.1,29,70.78,27.53c-7.65,4.94-9.12,14.24-9.12,14.24l0,.09a89.37,89.37,0,0,1,13.3-.3c1.82.19,24.3,2.53,31,5,3.16,1.18,10.8,2.93,11.63,4.28s.67,5-1.2,4.65-11.7-3.9-15.15-4.73-19.6-3.22-23.75-3.37c-3.92-.15-9.42-1.15-16.77-.64-.18.95-.39,2-.61,3.15a90.51,90.51,0,0,1,13.28-.3c1.82.19,24.3,2.53,31,5,3.16,1.18,10.8,2.93,11.63,4.28s.67,5-1.2,4.65-11.71-3.9-15.16-4.73S80,55.64,75.85,55.49c-3.91-.15-9.4-1.15-16.74-.64q-.27,1.44-.57,3a89.47,89.47,0,0,1,13.31-.3c1.83.18,24.3,2.53,31,5,3.16,1.18,10.81,2.92,11.63,4.27s.68,5-1.2,4.65-11.7-3.9-15.15-4.72-19.6-3.23-23.75-3.38c-3.92-.14-9.42-1.15-16.77-.63-.19,1-.39,2-.58,3a90.41,90.41,0,0,1,13.55-.32c1.82.18,24.3,2.53,31,5,3.15,1.18,10.8,2.92,11.62,4.27s.68,5-1.2,4.65-11.7-3.9-15.15-4.72-19.59-3.23-23.75-3.38c-4-.14-9.53-1.17-17-.61-.2,1-.4,2.08-.59,3.12A90.48,90.48,0,0,1,69,73.48c1.82.18,24.3,2.53,31,5,3.16,1.18,10.8,2.92,11.63,4.27s.67,5-1.2,4.65-11.71-3.9-15.16-4.72-19.59-3.23-23.75-3.38c-4-.14-9.53-1.17-17-.61-.21,1.08-.41,2.14-.61,3.19a92.11,92.11,0,0,1,13.73-.33c1.83.18,24.3,2.53,31,5,3.16,1.18,10.81,2.93,11.63,4.28s.68,5-1.2,4.65-11.7-3.9-15.15-4.73-19.6-3.22-23.75-3.37c-4-.15-9.62-1.18-17.16-.6-.19,1-.37,2-.55,2.94a91.88,91.88,0,0,1,13.71-.33c1.82.18,24.3,2.53,31,5,3.16,1.18,10.8,2.93,11.63,4.28s.67,5-1.2,4.65-11.71-3.9-15.16-4.73-19.59-3.22-23.75-3.37c-4-.15-9.59-1.18-17.11-.61-.23,1.26-.43,2.39-.61,3.38a91.4,91.4,0,0,1,13.81-.34c1.82.18,24.29,2.52,31,5,3.16,1.18,10.81,2.93,11.63,4.28s.68,5-1.2,4.65-11.7-3.9-15.15-4.73-19.6-3.22-23.75-3.37c-4-.15-9.57-1.18-17.06-.61-.71,5.86-.08,7.64,2.33,13.84C55.37,124.15,64.78,127.46,64.78,127.46Zm14.91-15.24c.54-1.65,3.5-.6,3.88-.53s2.4,1.58,2.77,5.48,4.21,8,4.81,8.86,6.52,4,6.52,4c-1.12,1.28-4.65,1.65-4.65,1.65s-.67-1-5.4-3.15-6.15-5.85-7.13-7S79.14,113.87,79.69,112.22ZM71,111.3a2.29,2.29,0,0,1,2.4-1.85c1.28.15,2.85,2.62,2.85,2.85V120c0,5.1,5,7.27,5.25,7.72s5.85,3.9,5.85,3.9,1.2,1.73-4.8-.52-9.67-7.65-10.57-9.3S71,112.15,71,111.3Zm-7.2-.43c.23-1.87,1-2.54,2.25-2.55,2.1,0,2.16,2.25,2.16,2.25s.09,2.7,0,2.93a52.91,52.91,0,0,0,.82,8.7c.68,3.45,9.1,8.18,9.1,8.18s-.25.82-2.65,0-7.87-5.55-9.82-7.58S63.62,112.75,63.84,110.87Zm-6.15.82a22.78,22.78,0,0,1,.3-2.92c.15-.22,2.4-2.7,3.38,1.2,0,0-.08,8,.45,9.08a21.66,21.66,0,0,0,8.4,9.9c5.77,3.6-10.28-3.3-11.48-8.85A35.82,35.82,0,0,1,57.69,111.69ZM53,108.31s.08-1.41,1-1.49,2,1.13,1.72,1.49.08,4.14,0,5.41.82,4.81,1,5.8,4.2,5.23,4.2,5.23a23,23,0,0,1-3.16-2c-1.8-1.35-2.84-3.38-3.81-5S53,108.31,53,108.31Z"/></svg>